<?xml version="1.0" encoding="UTF-8"?>
<svg id="logo" xmlns="http://www.w3.org/2000/svg" version="1.1" xmlns:xlink="http://www.w3.org/1999/xlink" viewBox="0 0 1920 1080">
  <!-- Generator: Adobe Illustrator 29.3.1, SVG Export Plug-In . SVG Version: 2.1.0 Build 151)  -->
  <defs>
    <style>
      .st0 {
        fill: url(#gradientBlue);
      }
    </style>
    <linearGradient id="gradientBlue" data-name="gradientBlue" x1="933.2" y1="538.6" x2="987.2" y2="538.6" gradientUnits="userSpaceOnUse">
      <stop offset="0" stop-color="#197291"/>
      <stop offset=".3" stop-color="#1f7f98"/>
      <stop offset=".6" stop-color="#248b9f"/>
      <stop offset="1" stop-color="#2690a2"/>
    </linearGradient>
  </defs>
  <path class="st0" d="M987.2,542.9h0c0,0,0,.1,0,.2,0,6.7-2.9,12.7-7.4,16.9-7.4,8.4-22,11.9-34.7,4.4-7.1-3.9-11.9-11.5-11.9-20.2s0-.9,0-1.4h0v-34.4h26.7v12s0,1.1,0,1.1v21.3c0,.2,0,.4,0,.5.3,4.5,4,8.1,8.6,8.1s8.3-3.6,8.6-8.1c0-.2,0-.4,0-.5v-7.6s0-6.9,0-6.9v-4.4s0-15.4,0-15.4h10.2v34.4Z"/>
</svg>